HIERARCHY
ROOT Hips
{
    OFFSET 0.000000 0.000000 0.000000
    CHANNELS 6 Xposition Yposition Zposition Zrotation Xrotation Yrotation
    JOINT Spine
    {
        OFFSET -0.000000 8.267054 0.000000
        CHANNELS 3 Zrotation Xrotation Yrotation
        JOINT Spine1
        {
            OFFSET -0.000000 23.684998 0.000000
            CHANNELS 3 Zrotation Xrotation Yrotation
            JOINT Neck
            {
                OFFSET -0.000000 23.587730 2.144339
                CHANNELS 3 Zrotation Xrotation Yrotation
                JOINT Head
                {
                    OFFSET -0.000000 14.114483 -2.016355
                    CHANNELS 3 Zrotation Xrotation Yrotation
                    End Site
                    {
                        OFFSET -0.000000 25.204432 0.000000
                    }
                }
            }
            JOINT LeftShoulder
            {
                OFFSET 4.070090 22.062094 -0.247321
                CHANNELS 3 Zrotation Xrotation Yrotation
                JOINT LeftArm
                {
                    OFFSET 10.395479 0.000000 0.000000
                    CHANNELS 3 Zrotation Xrotation Yrotation
                    JOINT LeftForeArm
                    {
                        OFFSET 37.713577 0.000000 0.000000
                        CHANNELS 3 Zrotation Xrotation Yrotation
                        JOINT LeftHand
                        {
                            OFFSET 20.284107 0.000000 0.000000
                            CHANNELS 3 Zrotation Xrotation Yrotation
                            End Site
                            {
                                OFFSET 15.122660 0.000000 0.000000
                            }
                        }
                    }
                }
            }
            JOINT RightShoulder
            {
                OFFSET -3.979272 22.062094 -0.247321
                CHANNELS 3 Zrotation Xrotation Yrotation
                JOINT RightArm
                {
                    OFFSET -10.395479 0.000000 0.000000
                    CHANNELS 3 Zrotation Xrotation Yrotation
                    JOINT RightForeArm
                    {
                        OFFSET -37.713577 0.000000 0.000000
                        CHANNELS 3 Zrotation Xrotation Yrotation
                        JOINT RightHand
                        {
                            OFFSET -20.284107 0.000000 0.000000
                            CHANNELS 3 Zrotation Xrotation Yrotation
                            End Site
                            {
                                OFFSET -15.122660 0.000000 0.000000
                            }
                        }
                    }
                }
            }
        }
    }
    JOINT LeftUpLeg
    {
        OFFSET 10.081773 0.000000 0.000000
        CHANNELS 3 Zrotation Xrotation Yrotation
        JOINT LeftLeg
        {
            OFFSET -0.000000 -36.382099 0.000000
            CHANNELS 3 Zrotation Xrotation Yrotation
            JOINT LeftFoot
            {
                OFFSET -0.000000 -49.182560 0.000000
                CHANNELS 3 Zrotation Xrotation Yrotation
                JOINT LeftToeBase
                {
                    OFFSET -0.000000 -6.553152 15.122660
                    CHANNELS 3 Zrotation Xrotation Yrotation
                    End Site
                    {
                        OFFSET -0.000000 0.000000 4.032709
                    }
                }
            }
        }
    }
    JOINT RightUpLeg
    {
        OFFSET -10.081773 0.000000 0.000000
        CHANNELS 3 Zrotation Xrotation Yrotation
        JOINT RightLeg
        {
            OFFSET -0.000000 -36.382099 0.000000
            CHANNELS 3 Zrotation Xrotation Yrotation
            JOINT RightFoot
            {
                OFFSET -0.000000 -49.182560 0.000000
                CHANNELS 3 Zrotation Xrotation Yrotation
                JOINT RightToeBase
                {
                    OFFSET -0.000000 -6.553152 15.122660
                    CHANNELS 3 Zrotation Xrotation Yrotation
                    End Site
                    {
                        OFFSET -0.000000 0.000000 4.032709
                    }
                }
            }
        }
    }
}
MOTION
Frames:    9
Frame Time:    0.008333
-32.798637    94.118591    -127.368019    1.436768    2.685923    2.202734    -2.509831    -9.421829    -0.043733    1.352710    -0.932675    0.174427    -5.516797    21.815199    -14.137159    17.141432    4.631591    -13.308358    16.395931    -1.549643    -6.864950    -27.802464    9.083973    0.111832    1.962946    -4.799087    0.697269    10.292579    -4.804680    0.070438    -16.335907    0.705029    -5.053195    29.365540    5.791076    3.081380    -2.864130    -1.933920    3.370353    -16.865805    -1.316736    -3.595025    -3.245414    -4.719371    1.302934    1.550711    13.939840    7.150870    0.172618    -10.144117    -4.894404    0.000000    0.000000    0.000000    -2.543099    -1.556590    -0.178429    1.180004    10.814994    1.533532    -0.341183    -9.632072    -9.856794    0.000000    0.000000    0.000000    
-32.794598    94.116852    -127.376617    1.436264    2.689220    2.244920    -2.467423    -9.412971    -0.042461    1.291810    -0.912165    0.171080    -5.462967    21.763830    -14.148895    17.152018    4.654141    -13.317351    16.267508    -1.391226    -6.812011    -28.054144    9.273251    0.063646    1.958166    -4.982271    0.424706    10.257252    -4.985346    0.046434    -16.223257    0.803259    -5.101993    29.650845    6.074873    2.997100    -2.871623    -2.060136    3.459210    -16.644411    -1.440751    -3.642105    -3.266862    -4.746023    1.379026    1.608802    13.959601    7.063301    0.155105    -10.141982    -4.936859    0.000000    0.000000    0.000000    -2.540865    -1.559603    -0.193157    1.174852    10.816922    1.520784    -0.339381    -9.639894    -9.868705    0.000000    0.000000    0.000000    
-32.791073    94.114853    -127.384338    1.434714    2.688724    2.286885    -2.422905    -9.400704    -0.040990    1.227260    -0.891656    0.168041    -5.407942    21.715364    -14.160983    17.164858    4.672058    -13.325951    16.140743    -1.237618    -6.760099    -28.300400    9.451922    0.015400    1.954371    -5.148584    0.161069    10.203213    -5.150462    0.009588    -16.109039    0.895734    -5.147948    29.936861    6.353364    2.909675    -2.877649    -2.177619    3.542143    -16.417521    -1.557410    -3.683567    -3.278587    -4.766219    1.425029    1.644822    13.977917    6.994677    0.146160    -10.144421    -4.963802    0.000000    0.000000    0.000000    -2.536643    -1.557857    -0.211652    1.168188    10.818068    1.511181    -0.337489    -9.647882    -9.879526    0.000000    0.000000    0.000000    
-32.787666    94.112610    -127.392448    1.432770    2.689044    2.330248    -2.372747    -9.388126    -0.038470    1.150958    -0.871316    0.165357    -5.347347    21.670435    -14.174881    17.182695    4.681112    -13.334546    16.010521    -1.084078    -6.707047    -28.551640    9.621963    -0.034883    1.954400    -5.287641    -0.097388    10.099854    -5.290065    -0.046275    -15.984760    0.985003    -5.192866    30.238693    6.632209    2.813540    -2.876962    -2.283683    3.618257    -16.174383    -1.664173    -3.721556    -3.284335    -4.787310    1.458559    1.667988    13.997156    6.929159    0.143478    -10.149902    -4.980113    0.000000    0.000000    0.000000    -2.531530    -1.557698    -0.236785    1.159702    10.820641    1.505910    -0.335389    -9.656539    -9.889666    0.000000    0.000000    0.000000    
-32.783669    94.110458    -127.401352    1.431856    2.691089    2.374597    -2.315690    -9.375536    -0.034467    1.058169    -0.851811    0.163475    -5.278924    21.630976    -14.191699    17.205166    4.677635    -13.343801    15.878005    -0.931119    -6.654710    -28.808590    9.778209    -0.085631    1.958637    -5.392893    -0.344995    9.939468    -5.397547    -0.121694    -15.848053    1.072246    -5.236947    30.558649    6.901518    2.710611    -2.864487    -2.371774    3.681448    -15.914607    -1.754822    -3.756555    -3.289748    -4.810404    1.490687    1.687537    14.016441    6.860806    0.143340    -10.154795    -4.991966    0.000000    0.000000    0.000000    -2.528256    -1.560645    -0.267813    1.150890    10.825212    1.504628    -0.333483    -9.665667    -9.899301    0.000000    0.000000    0.000000    
-32.778961    94.108589    -127.410912    1.432524    2.693848    2.418929    -2.252263    -9.361613    -0.028986    0.948449    -0.834209    0.162549    -5.201332    21.598753    -14.212017    17.229597    4.659640    -13.354285    15.745467    -0.779717    -6.604268    -29.069090    9.913315    -0.135606    1.964022    -5.466856    -0.576566    9.735649    -5.475299    -0.215711    -15.699773    1.149043    -5.275661    30.895271    7.159711    2.594637    -2.839376    -2.439024    3.728749    -15.635097    -1.826612    -3.788763    -3.295990    -4.832532    1.512463    1.702093    14.032883    6.801282    0.145018    -10.157642    -5.001082    0.000000    0.000000    0.000000    -2.527729    -1.565389    -0.302778    1.142432    10.830984    1.506110    -0.331490    -9.674630    -9.907669    0.000000    0.000000    0.000000    
-32.773804    94.106842    -127.420876    1.434851    2.696982    2.463055    -2.182866    -9.346299    -0.022380    0.821011    -0.818277    0.162323    -5.111347    21.573902    -14.235706    17.252441    4.626232    -13.365919    15.616356    -0.631707    -6.555015    -29.338364    10.025331    -0.183629    1.970153    -5.514779    -0.790873    9.505573    -5.528455    -0.329011    -15.537113    1.215576    -5.308692    31.248604    7.403374    2.466441    -2.801175    -2.485568    3.758509    -15.327993    -1.880210    -3.817396    -3.303002    -4.852748    1.520954    1.710992    14.045732    6.753925    0.148373    -10.159005    -5.007721    0.000000    0.000000    0.000000    -2.529517    -1.571113    -0.341270    1.133640    10.837318    1.510410    -0.328959    -9.684112    -9.914374    0.000000    0.000000    0.000000    
-32.768501    94.105080    -127.431404    1.437902    2.700654    2.507737    -2.105984    -9.329566    -0.014537    0.674707    -0.803464    0.161917    -5.008816    21.556868    -14.261884    17.274830    4.575061    -13.377303    15.488814    -0.486724    -6.504542    -29.628933    10.116494    -0.228914    1.976197    -5.539083    -0.990775    9.264159    -5.559511    -0.464365    -15.356430    1.296388    -5.348433    31.628218    7.615750    2.350060    -2.746758    -2.509509    3.764088    -14.977188    -1.914738    -3.839913    -3.309155    -4.871953    1.517697    1.713902    14.056055    6.715334    0.153803    -10.160195    -5.010968    0.000000    0.000000    0.000000    -2.532057    -1.577886    -0.383165    1.124002    10.844028    1.516318    -0.325479    -9.693827    -9.919409    0.000000    0.000000    0.000000    
-32.763546    94.103325    -127.441788    1.441164    2.703846    2.550409    -2.027058    -9.311424    -0.007151    0.522190    -0.790070    0.161711    -4.906698    21.547155    -14.287542    17.299747    4.511654    -13.386404    15.363590    -0.349508    -6.453223    -29.925442    10.183997    -0.270068    1.979560    -5.538553    -1.167040    9.032443    -5.566171    -0.606709    -15.172277    1.363771    -5.382420    32.020622    7.807509    2.226290    -2.681943    -2.514722    3.751419    -14.592352    -1.932882    -3.860324    -3.313424    -4.888587    1.504418    1.710752    14.063900    6.686152    0.161071    -10.161912    -5.010645    0.000000    0.000000    0.000000    -2.534727    -1.583983    -0.423464    1.114839    10.850129    1.519516    -0.321769    -9.703477    -9.921954    0.000000    0.000000    0.000000    
